<?xml version="1.0" encoding="UTF-8"?>
<svg id="Layer_1" xmlns="http://www.w3.org/2000/svg" version="1.1" xmlns:xlink="http://www.w3.org/1999/xlink" viewBox="0 0 12000 3000">
  <!-- Generator: Adobe Illustrator 30.4.0, SVG Export Plug-In . SVG Version: 2.1.4 Build 226)  -->
  <defs>
    <style>
      .st0 {
        fill: #fff;
      }

      .st1 {
        fill: none;
      }

      .st2 {
        clip-path: url(#clippath-1);
      }

      .st3 {
        clip-path: url(#clippath);
      }
    </style>
    <clipPath id="clippath">
      <rect class="st1" x="375.33" y="87.5" width="2825" height="2825"/>
    </clipPath>
    <clipPath id="clippath-1">
      <rect class="st1" x="375.33" y="87.5" width="2825" height="2825"/>
    </clipPath>
  </defs>
  <g class="st3">
    <g class="st2">
      <path class="st0" d="M2179.49,1404.55c10.41-4.28,19.89-6.17,30.05-6.12l35.29-5.81,12.97-2.44,31.44-4.89,39.12-5.51,40.2-5.71,48.37-5.77,35.7-1.7c11.11-.53,20.62-5.24,31.9-4.75,18.98.83,36.58-1.41,55.42-3.22l18.38-1.76,67.82-.88,21.16-3.05,137.38-.51c1.94-15.07-1.71-28.59-3.99-42.53l-5.42-33.14c-1.46-8.89-1.46-16.37-5.81-24.83l-1.7-19.97c-3.14-7.68-3.83-13.75-5.75-21.34l-5.5-21.7-5.61-22.1-4.79-17.01-5.28-16.81-5.16-15.34-5.56-16.38-5.28-15.48-5.05-13.01-6.99-17.06c-23.59-57.55-51.5-111.01-84.86-163.43l-37.45-55.22-16.59-22.03-21.96-27.77-25.14-28.41-17.12-17.83-16.08-17.14-23.95-22.53c-54.5-51.27-113.27-95.31-178.3-132.79l-62.22-33.82-67.59-30.19-32.43-12.02-13.8-4.9-15.32-5.24-16.55-5.37-17.03-5.37-22.2-5.66-20.56-5.16-25.71-5.6-31.68-5.18-10.83-2.7-37.23-4.86-42.49-4.04-14.6-2.3-126.89.6c-19.32.09-37.77,7.01-57.31,4.55-12.67,4.38-25.35,5.56-38.4,6.39l-16.46,3.7-19.48,3.71-27.69,5.64-20.73,5.12-23.44,5.92-18.83,5.15-18.28,5.62-43.39,14.7c-74.32,25.17-142.66,61.09-207.53,105.5l-24.35,16.67-12.54,9.34-34.4,28.38-31.25,25.88c-22.91,18.98-43,40.47-62.36,62.88l-31.74,36.75-21.96,27.64-16.22,22.32-23.76,33.79c-24.51,34.86-41.43,72.94-60.72,110.77l-10.61,20.8-19.42,48.54-11.1,30.01-5.69,16.46-5.26,17.11-5.51,18.46-5.62,20.22-5.31,20.78-4.98,20.54-5.86,27.39-3.46,21.85-3.58,22.76-5.56,46.83c-1.79,15.11-1.52,31.09-1.85,46.62l-1.57,74.63,1.5,34.17c.7,15.9-.32,32.41,1.97,48.08l5.5,37.47,5.15,36.85,2.39,11.04,5.19,29.72,5.05,22.36,5.74,23.99,4.98,18.92,5.84,21.99,5.29,16.93,17.79,54.26,4.88,8.43c1.18,2.05-2.88,6.96-5.41,8.49l-30.09,18.18-53.64,32.9-30.97,17.27-49.67,31.38c-6.34-8.73-11.32-17.17-15.05-26.66l-19.9-50.68-5.32-14.93-5.77-16.05-5.35-14.99-5.51-18.67-5.33-20.34-5.33-20.33-3.87-15.93-3.48-16.36-5.58-27.26-5.16-28.06-6.07-35.19-1.5-24.56c-3.91-15.01-5.12-27.67-5.05-43.26l-4.92-45.92.04-125.11c0-11.05,4.5-22.37,4.86-33.39l.96-29.26c2.65-16.25,4.95-31.53,5.27-48.03,4.01-10.62,5.68-21.49,5.36-33.01,4.22-8.83,5.72-18.19,5.53-27.96l6.13-23.49,5.71-23.97,4.15-15.9,5.59-20.4,5.59-18.13,5.35-15.13,4.95-13.53,6.42-17.55c27.15-74.2,60.34-144.82,103.28-210.99l18.38-28.32,9.72-14.38,17.07-25.24,48.21-62.31c14.41-18.62,29.07-35.37,45.61-51.87l40.77-40.67,13.03-12.71,29.36-26.02,37.02-31.18c14.15-11.92,27.86-21.9,43.5-32.5,69.54-47.16,141.59-89.21,219.05-121.05l55.2-20.88,33.03-11.65,19.25-6.53,17.06-5.24,18.45-5.38,20.72-5.37,22.02-5.52,14.22-3.54,16.31-3.44,27.84-5.26,30.82-5.83c9.55-1.81,17.4-2.2,26.95-5.5,5.66-1.96,15.82-.46,22.15-1.82,19.1-4.08,36.56-4.69,56.01-5.42l36.78-4.87,164.13-.04c8.66,0,17.75,4.07,25.8,4.8l31.99,2.92,13.23,2.34,27.56,2.13,28.07,5.71,29.73,5.68,22.36,4.8,20.4,4.94,20.95,5.23,20.23,5.54,17.05,5.12,20.27,5.89,16.27,5.3,15.37,5.25,16.13,5.66,11.91,4.42,46.35,19.89,8.88,3.73,58.34,28.38c41.71,20.29,80.71,42.61,117.67,70.52l59.95,45.27,21.55,17.07,33.92,28.89,20.31,18.38c29.72,26.89,57.31,54.18,83.25,84.7l35.52,41.8,24.3,31.17,16.35,22.33c63.31,86.46,110.86,181.58,147.8,281.68l5.39,15.37,5.54,16.58,4.93,15.13,16.48,66.65,4.86,22.76,5.56,26.39,4.75,26.37,4.23,16.97,1.46,26.59c2.76,11.32,5.06,20.44,4.7,32.09-.21,6.72,1.78,13.25,2.2,19.92l3.84,61.09,1.57,20.42c.56,7.3-6.11,11.69-12.9,11.21-29.7-2.11-57.45,1.9-86.64,4.53l-73.08,1.28-28.49,4.09c-23.01,1.03-44.07,1.73-66.7,5.67l-39.71,1.5c-13.54.51-25.51,5.54-39.27,4.68-10.78-.67-19.91,1.78-30.52,4.58l-26.36,1.63-42.52,6.12-38.97,5.38-34.84,5.14-13.17,2.24-31.37,5.1-33.51,5.63-26.03,5.82-18.52,1.76c-5.57.53-10.57,4.55-15.53,4.41-8.38-.24-14.26,2.52-21.53,4.05l-27.52,5.78-25.89,5.58-19.55,4.44-22.51,5.29-22.15,5.45-18.91,4.84-23.38,5.88-20.78,5.3-20.3,5.54-18.7,5.3-19.92,5.81-17.43,5.13-15.53,4.52-20.17,5.65-18.47,5.37-17.01,5.16-17.07,5.29-17.91,5.93-15.32,5.11-16.56,5.56-15.19,5.1-16.96,5.31-14.98,5.06-16.52,5.66-13.56,4.78-16.29,5.76-15.06,5.33-15.05,5.36-14.78,5.31-17.82,6.35-77.84,29.55-80.1,32.16-29.39,13.17-70.03,31.51-90.51,42.41c-74.13,37.12-146.62,74.5-217.22,117.84l-60.91,37.39-133.39,85.54-49.34,32-56.93,36.91-63.42,41.91-135.24,91.29-39.22,25.68c-12.64,8.89-27.41,14.39-42.36,18.2-17.26-3.93-30.19-12.41-41.21-25.4-4.9-3.65-9.6-7.66-13.25-12.53l-15.07-20.12c-11.93-15.93-22.23-32.88-28.87-52.17l-6.07-17.66c-4.28-12.44,2.99-37.9,11.28-48.04,13.5-16.51,29.18-29.83,45.68-42.95l31.84-25.32,20.93-16.01,17.69-13.49,20.22-14.96,28.73-20.9,48.58-34.96,23.25-16.69,31.92-21.78,76.58-50.15,53.86-31.3,17.4-9.78,53.67-28.54c131.43-69.91,267.41-127.11,405.9-179.42l16.11-6.09,13.49-5.04,17.29-6.31,49.53-17.57,25.85-8.89,13.84-4.63,16.47-5.5,15.3-5.11,17.82-5.84,18.27-5.69,51.08-15.88,15.11-4.55,18.92-5.47,16.78-5.18,18.16-5.59,18.77-5.35,19.98-5.63,20.25-5.59,17.58-4.85,18.91-5.08,20.25-5.22,20.82-5.22,22.1-5.54,22.09-5.63,12.95-2.55,18.86-5.42,23.94-5.64,23.88-5.53,15.5-3.81,15.02-3.13,25.9-5.4,25.93-5.36,27.51-5.55c8.26-1.66,14.56-2.72,22.74-5.95l18.61-1.62c9.86-3.55,18.05-4.26,28.18-5.87,10.87-1.73,21.55-6.08,34.32-4.24"/>
      <path class="st0" d="M873.87,2178.81c-2.56-2.55-3.41-7.99-1.57-9.32l24.72-17.79,27.42-19.06,38.24-24.58,98.17-59.41,23.46,23.88,14.35,18.61,37.08,38.48,10.78,11.46,18.7,18.21,22.77,21.39,38.94,32.9,25.34,19.46c81.13,62.3,172.03,109.47,269.83,137.42l18.98,5.42,20.56,5.52,20.68,5.16,23.98,5.61,27.54,5.52,33.61,5.35c11.45,1.82,23.03,5.2,35.19,4.36,14.65-1.01,28.08,2.35,42.49,3.16l34.87,1.96,50.94-.38,37.1-2,32.06-3.2,25.23-2.21c5.37-.47,11.36-3.05,16.88-2.8,10.32.47,18.84-1.62,28.35-5.03l15.64-.97c9.1-4.35,18.39-4,27.65-6.34l21.96-5.57,20.5-5.36,20.28-5.47,18.32-5.3,14.04-4.41,16.5-5.7,15.23-5.26,15.98-5.88c56.4-20.73,108.41-48.66,160.02-79.17l31.93-20.25c43.04-27.3,81.57-59.59,120.17-93.54l63.73-63.36,18.72-21.93,20.54-23.59,17.08-21.9,18.86-25.11,58.72-92.52,17.93-32.35c23.54-42.48,40.98-86.43,55.13-132.62l12.07-39.41,4.52-17.35,5.76-23.53,5.48-23.91c1.97-8.6,1.79-16.23,5.94-24.44l2.01-18.4,5.64-33.92,5.23-44.43,3.47-25.54,1.16-20.86c.13-2.37.23-6.66,1.48-7.99,1.25-1.33,4.98-1.84,7.1-1.89l13.55-.33,49.21-1.12,24.91-2.44,70.93-1.3,15.07-.6-.41,60.21-2.17,19.69c-.78,7.1-3.35,13.75-2.94,20.74.77,13.18-2.56,24.72-4.41,37.21l-5.45,36.78-5.52,28.49-2.38,18.23-5.56,22.78-5.61,23.99-4.54,16.77-15.3,49.51-15.39,43.53c-42.8,111.65-102.77,215.98-178.37,309.32l-25.78,30.39-24.8,26.6-18.87,20.21-23.43,23.67-36.83,35.67-18.47,16.37-33.36,27.56-16.65,12.92c-82.37,63.92-179.58,120.06-275.94,157.22l-45.29,17.47-14.6,4.76-18.93,5.48-17.18,5.21-12.45,3.01-18.43,5.56-22.46,5.36-22.07,5.46-17.39,3.92-16.81,3.12-30.8,6.35c-10.46-.09-20.5,1.34-30.06,5.42-15.8-.51-30.79,2.72-46.57,4.45l-56.29,6.15-50.85,1.58-58.73.02-65.3-1.69-62.49-6.19-41.17-5.1-38.2-5.55-25.78-5.21-8.24-1.96-27.41-5.63-22.38-5.19-22.19-5.68-16.96-4.81-20.28-5.87-18.44-5.47-18.45-5.56-14.16-4.56-19.32-7.12-81.29-33.06-99.34-49.53-23.15-14.18-30.6-18.88-16-9.91-51.96-36.39-19.94-15.38-25.93-20.09-22.48-18.04-13.02-10.87-93.59-93.26Z"/>
      <path class="st0" d="M2944.18,1797.49l3.92-12.52,5.6-16.59,3.17-12.01,4.83-15.68,5.87-22.1,4.86-21.06,5.83-27.27,5.3-28.11,3.58-23.26,3.39-19.59,6.04-47.71,1.9-32.98,3.64-35.28.41-104.84-2.03-16.61-4.09-53.49-4.66-33.48c-.62-4.48-1.73-10.78-2.44-15.27l-6.14-38.3-5.09-25.58-5.3-28.43-5.28-20.48-5.66-22.06-5.28-20.57-6.22-21.3-24.1-67.07c-41.62-115.83-105.11-222.27-183.39-317.59l-21.61-25.04-31.91-36.4-52.5-52.29-58.25-52.56-19.24-15.58-34.61-26.65c-77.76-57.05-160.24-105.58-248.7-143.43l-54.98-21.08-15.73-5.8-15.31-5.27-15.21-5.03-17.21-5.21-16.56-5.01-20.28-5.57-18.9-5.71-16.48-2.07c-7.81-3.13-14.5-4.18-22.58-5.85l-25.86-5.35-27.86-5.48-40.92-5.29-21.87-3.49-27.93-.94-22.4-2.97-55.73-1.86h-68.51s-50.33,1.84-50.33,1.84l-37.31,3.33-25.13,2.22c-7.82.69-14.7,3.11-22.59,2.82-8.73-.33-14.99,1.53-23.36,4.49l-18.14,2.09-27.77,5.91-26.21,5.39-25.96,5.34-23.27,5.69-19.03,5.15-18.42,5.22-17.31,4.97-17.33,5.18-16.64,5.3-16.51,5.6-16.12,5.83-13.82,4.89-14.69,5.17-43.51,17.14-25.69,12.62-61.6,29.1-23.23,13.41c-33.72,19.46-66.54,38.07-97.87,60.97l-53.35,38.99-10.46,7.99-38.09,32.15-33.96,32.22c-11.17,10.59-21.93,20.93-32.47,32.16l-32.97,35.11-38.07,45.12-20.13,26.18c-47.5,61.78-89.02,126.6-121.04,197.47l-27.65,61.19-4.81,13.14-5.16,13.48-5.7,14.58-5.38,13.21-5.69,15.66-5.49,17.2-4.49,14.08-5.42,18.21-4.97,19.02-5.87,23.44-5.72,20.9-1.86,18.14c-3.5,8.62-5.18,15.91-4.74,25.17-4.82,11.64-6.28,23.8-5.35,36.7-4.51,11.2-6.52,22.83-5.24,35.12l-2.68,19.66c-2.86,20.98-1.98,41.93-3.74,63.24l-1.97,23.91-.07,17.23,1.56,65.07,1.84,47.72,3.88,30.7,2.13,29.4,2.99,20.64,5.57,36.63,5.11,25.14,3.19,17.67,5.09,21.11,5.34,22.5,5.52,21.7,5.42,20.35,4.94,17.05,4.85,15.82,5.89,17.75,4.91,13.98,6.03,15.55,5.21,13.41,4.98,15.32,16.72,38.26c1.59,3.64,7.23,11.8,4.39,14.48l-16.57,15.64-14.61,11.15-6.38,4.04c-1.5.95-5.89-1.91-6.68-3.56l-22.05-46.02-23.83-57.41-9.58-25.6-4.5-12.56-5.63-16.53-5.4-16.56-5.06-17.02-6.22-23.46-5.01-18.91-5.53-26.12-5.2-27.68-1.98-9.83-5.33-31.08-5.24-31.64-6.01-38.78-1.24-36.37-4.9-36.9.03-138.01,4.9-33.41c1.66-11.31-.43-23.62,1.31-34.51l5.68-35.49,4.56-31.6,4.57-31.36,3.87-20.18,5.59-24.01,4.95-20.72,5.28-20.69,5.52-18.39,5.39-16.55,5.43-16.6,5.45-17.07,5.33-14.86,6.06-16.41c12.28-33.25,25.63-65.26,41.73-96.47l36.38-70.54,8.96-13.55c29.09-51.2,62.86-97.55,98.86-144.11,26.6-34.4,55.4-64.28,85.33-95.23,9.64-9.96,18.48-19.65,28.69-28.85l38.72-34.88,25.85-21.98,37.82-30.83,16.5-12.3,33.05-22.85,57.45-36.78c46.29-29.64,95.13-53.58,145.89-75.18l42.7-18.17,70.68-25.37,15.45-5.06,16.7-5.36,19.82-6.04,16.96-5.06,20.67-5.4,22.18-5.48,22.43-5.34,17.14-3.9,18.49-3.53,27.26-5.25,35.52-5.37c12.89-1.95,25.76-2.75,38.64-6.47,18.89.07,36.55-1.18,55.4-5.82l191.19-.02,29.75,5.08c8.77,1.5,20.53-.88,28.54,1.29,10.92,2.96,19.21,3.52,30.57,4.9l21.05,2.57,24.36,3.71,20.6,4.17,17.1,2.97,24.02,5.55,22.49,5.28,23.61,5.72,18.83,5.19,17.11,5.24,18.24,5.87,16.23,5.32,17.26,5.53c76.75,28,150.55,61.76,221.25,103.1l56.83,35.84,55.68,38.18,27.54,20.41,66.73,55.13,45.35,43.14,50.22,50.98,20.84,23.58,28.35,34.28,13.75,17.67,66.75,93.59c24.46,34.3,44.5,69.61,61.47,108.45l45.26,103.63,6.38,17.21,4.84,13.78,6.07,17.94,5.05,14.59,5.49,18.89,5.03,17.28,5.83,20.02,4.64,19.07,5.67,25.94,4.93,22.02,5.98,27.9,1.94,16.7c.9,7.72,4.69,13.56,4.43,21.37-.3,8.94,4.05,16.05,4.56,24.95l1.81,31.64c3.16,14.65,5.3,28.06,4.66,43.03-.59,14.04,2.64,26.9,3.12,40.83l1.37,40.07-.03,22.57-1.06,34.83-3.63,60.99-4.54,31.01-5.04,39.12-5.24,29.76-5.7,31.27-5.6,22.75-2.27,16.36-5.53,20.9-5.37,22.15-4.21,15.8-6.12,19.83-5.02,15.38-5.16,15.34-6.15,17.38c-32.17,90.89-78.49,174.39-132.16,254.61l-12.06,18.03-8.29,11.68-26.95,35.53-18.87,23.61-26.5,30.76-9.18,11.18-95.82,95.51-34.86,29.91-13.12,11.05-59.77,45.57c-86.97,61.32-180.42,111.2-279.49,149.41l-12.26,4.3-14.67,5.55-14.63,5.27-17.25,5.49-17.9,5.67-18.41,5.53-18.62,5.6-16.07,3.99-24.05,5.49-23.84,5.5-22.6,5.25c-9.79,2.28-19.53,2.07-29.02,6.48l-17.44,1.26c-12.61,3.82-24.43,4.23-37.37,5.79-11.74,1.42-22.67,5.51-35.16,4.57-9.14-.69-17.83,1.41-26.92,2.4l-24.48,2.66-66.53,3.37-86.2.21-23.02-2.65-56.77-1.01-16.09-2.13c-7.73-1.03-14.85-3.5-22.57-2.93-13.78,1.01-25.95-2.76-38.96-4.48-12.41-1.64-23.1-2.15-35.51-5.92l-16.91-1.46c-8.34-4.24-17.44-3.86-26.21-5.76l-27.58-5.97-22.18-5.19-22.22-5.29-17.67-4.4-20.74-5.5-18.37-5.45-18.37-5.65-16.72-5.36-14.51-5.43-15.29-5.32-15.8-5.63-40.98-16.2-51.29-22.76c-60.47-26.83-117.51-58.39-171.14-97.6l-36.49-24.7-22.21-16.45-14.76-11.02-19.3-15.54-37.55-32.7-21.66-19.09-46-45.96-36.73-40.39c-4.05-4.45,1.19-9.48,4.74-11.81l24.38-16.02c1.66-1.09,7.17-.35,8.46,1.31l13.52,17.37,45.33,45.25,17.48,15.6,37.12,32.98,23.03,19.51,26.11,21.63,26.95,19.37,44.57,30.98,60.09,37.52,15.3,9.04c61.32,33.52,124.23,61.43,189.77,86.23l17.98,6.09,15.11,5.14,18.11,5.54,20.19,5.67,18.83,5.33,18.75,5.24,20.7,5.04,22.62,5.07,24.02,5.3,25.75,5.43,30.02,5.83,20.43,1.71c16.28,3.72,30.02,5.17,47,5.22l18.04,4.83,70.2,3.72,22.29,1.57,77.16.05,20.3-1.77c15.17-1.32,29.18-3.75,44.36-3.26,14.84.48,28.24-1.97,42.7-4.91l26.4-1.7,28.53-5.65,32.81-5.71,29.58-5.46,22.34-5.1,24.11-5.47,18.95-4.59,19.02-5.22,19.95-5.85,17.47-5.12,15.99-5.42,16.76-5.61,16.61-5.18,58.14-22.78,34.48-15.73c54.81-25.01,106.49-54.3,156.79-88.12l16.65-11.2,54.15-39.57,24.46-19.92,26.6-23.06,28.86-25.03,53.25-53.29,30.58-34.35,22.32-25.63,31.18-38.85,10.14-13.77,12.96-18.41,15.47-21.42,34.07-54.01,28.33-51.58c29.58-53.86,52.27-110.51,72.74-168.51"/>
    </g>
  </g>
  <g>
    <path class="st0" d="M3555.3,1731.94c-21.32,0-40.9-5.18-58.75-15.55-17.86-10.37-31.97-24.48-42.34-42.34-10.37-17.85-15.55-37.44-15.55-58.75v-388.8c0-21.3,5.18-40.89,15.55-58.75,10.37-17.85,24.48-31.97,42.34-42.34,17.85-10.37,37.44-15.55,58.75-15.55h388.8c21.3,0,40.74,5.18,58.32,15.55,17.56,10.37,31.67,24.49,42.34,42.34,10.65,17.86,15.98,37.45,15.98,58.75v388.8c0,21.32-5.33,40.91-15.98,58.75-10.67,17.86-24.77,31.97-42.34,42.34-17.58,10.37-37.02,15.55-58.32,15.55h-388.8ZM3557.89,1627.39h382.75c4.02,0,7.63-1.58,10.8-4.75,3.16-3.16,4.75-6.76,4.75-10.8v-381.89c0-4.02-1.59-7.63-4.75-10.8-3.17-3.16-6.78-4.75-10.8-4.75h-382.75c-4.04,0-7.64,1.59-10.8,4.75-3.17,3.17-4.75,6.78-4.75,10.8v381.89c0,4.04,1.58,7.64,4.75,10.8,3.16,3.17,6.76,4.75,10.8,4.75Z"/>
    <path class="st0" d="M4171.53,1265.38h360.29c15.98,0,30.56,3.89,43.74,11.66,13.17,7.78,23.75,18.37,31.75,31.75,7.99,13.4,11.99,28.09,11.99,44.06v92.66c0,6.05-.55,11.78-1.62,17.17-1.08,5.41-2.7,10.48-4.86,15.23,7.78,10.8,13.93,21.5,18.47,32.08,4.54,10.59,6.8,21.28,6.8,32.08v102.38c0,15.99-4,30.68-11.99,44.06-8,13.4-18.58,23.98-31.75,31.75-13.18,7.78-27.76,11.66-43.74,11.66h-379.08v-466.56ZM4260.96,1455.24h267.62c3.45,0,6.26-1.19,8.42-3.56,2.16-2.37,3.24-5.07,3.24-8.1v-88.13c0-3.02-1.08-5.72-3.24-8.1-2.17-2.37-4.97-3.56-8.42-3.56h-267.62c-3.03,0-5.73,1.19-8.1,3.56s-3.56,5.08-3.56,8.1v88.13c0,3.03,1.18,5.73,3.56,8.1,2.37,2.38,5.07,3.56,8.1,3.56ZM4260.96,1653.53h287.06c3.02,0,5.72-1.18,8.1-3.56,2.37-2.37,3.56-5.07,3.56-8.1v-96.55c0-3.02-1.19-5.72-3.56-8.1-2.38-2.37-5.08-3.56-8.1-3.56h-287.06c-3.03,0-5.73,1.19-8.1,3.56-2.38,2.38-3.56,5.08-3.56,8.1v96.55c0,3.03,1.18,5.73,3.56,8.1,2.37,2.38,5.07,3.56,8.1,3.56Z"/>
    <path class="st0" d="M4813.04,1731.94c-15.99,0-30.57-3.89-43.74-11.66-13.18-7.78-23.65-18.36-31.43-31.75-7.78-13.38-11.66-28.08-11.66-44.06v-31.1h77.76v28.51c0,3.03,1.18,5.73,3.56,8.1,2.37,2.38,5.07,3.56,8.1,3.56h286.42c3.45,0,6.37-1.18,8.75-3.56,2.37-2.37,3.56-5.07,3.56-8.1v-92.66c0-3.45-1.19-6.26-3.56-8.42-2.38-2.16-5.3-3.24-8.75-3.24h-289.01c-15.99,0-30.57-3.89-43.74-11.66-13.18-7.78-23.65-18.24-31.43-31.43-7.78-13.17-11.66-27.75-11.66-43.74v-97.85c0-15.98,3.89-30.67,11.66-44.06,7.78-13.39,18.25-23.98,31.43-31.75,13.17-7.78,27.75-11.66,43.74-11.66h292.25c15.98,0,30.56,3.89,43.74,11.66,13.17,7.78,23.75,18.37,31.75,31.75,7.99,13.4,11.99,28.09,11.99,44.06v31.1h-78.41v-28.51c0-3.02-1.19-5.72-3.56-8.1-2.38-2.37-5.3-3.56-8.75-3.56h-286.42c-3.03,0-5.73,1.19-8.1,3.56s-3.56,5.08-3.56,8.1v92.66c0,3.46,1.18,6.27,3.56,8.42,2.37,2.17,5.07,3.24,8.1,3.24h289.66c15.98,0,30.56,3.89,43.74,11.66,13.17,7.78,23.75,18.26,31.75,31.43,7.99,13.18,11.99,27.76,11.99,43.74v97.85c0,15.99-4,30.68-11.99,44.06-8,13.4-18.58,23.98-31.75,31.75-13.18,7.78-27.76,11.66-43.74,11.66h-292.25Z"/>
    <path class="st0" d="M5277.01,1731.94v-466.56h77.11v466.56h-77.11Z"/>
    <path class="st0" d="M5441.59,1731.94v-466.56h379.08c15.98,0,30.56,3.89,43.74,11.66,13.17,7.78,23.75,18.37,31.75,31.75,7.99,13.4,11.99,28.09,11.99,44.06v291.6c0,15.99-4,30.68-11.99,44.06-8,13.4-18.58,23.98-31.75,31.75-13.18,7.78-27.76,11.66-43.74,11.66h-379.08ZM5531.02,1653.53h287.06c3.02,0,5.72-1.18,8.1-3.56,2.37-2.37,3.56-5.07,3.56-8.1v-286.42c0-3.02-1.19-5.72-3.56-8.1-2.38-2.37-5.08-3.56-8.1-3.56h-287.06c-3.46,0-6.38,1.19-8.75,3.56-2.38,2.38-3.56,5.08-3.56,8.1v286.42c0,3.03,1.19,5.73,3.56,8.1,2.37,2.38,5.29,3.56,8.75,3.56Z"/>
    <path class="st0" d="M5994.99,1731.94v-466.56h77.11v466.56h-77.11Z"/>
    <path class="st0" d="M6159.57,1352.86c0-15.98,3.89-30.67,11.66-44.06,7.78-13.39,18.36-23.98,31.75-31.75,13.38-7.78,28.08-11.66,44.06-11.66h291.6c15.98,0,30.56,3.89,43.74,11.66,13.17,7.78,23.75,18.37,31.75,31.75,7.99,13.4,11.99,28.09,11.99,44.06v379.08h-78.41v-160.06h-310.39v160.06h-77.76v-379.08ZM6547.72,1494.12v-138.67c0-3.02-1.2-5.72-3.56-8.1-2.38-2.37-5.08-3.56-8.1-3.56h-287.06c-3.03,0-5.73,1.19-8.1,3.56-2.38,2.38-3.56,5.08-3.56,8.1v138.67h310.39Z"/>
    <path class="st0" d="M6719.44,1731.94v-466.56h88.78l299.38,356.4v-356.4h78.41v466.56h-88.78l-300.02-357.05v357.05h-77.76Z"/>
    <path class="st0" d="M7527.99,1226.5c0-21.3,5.18-40.89,15.55-58.75,10.37-17.85,24.48-31.97,42.34-42.34,17.85-10.37,37.44-15.55,58.75-15.55h388.8c21.3,0,40.74,5.18,58.32,15.55,17.56,10.37,31.67,24.49,42.34,42.34,10.65,17.86,15.98,37.45,15.98,58.75v505.44h-104.54v-213.41h-413.86v213.41h-103.68v-505.44ZM8045.52,1414.85v-184.9c0-4.02-1.59-7.63-4.75-10.8-3.17-3.16-6.78-4.75-10.8-4.75h-382.75c-4.04,0-7.64,1.59-10.8,4.75-3.17,3.17-4.75,6.78-4.75,10.8v184.9h413.86Z"/>
    <path class="st0" d="M8257.2,1731.94v-466.56h77.11v466.56h-77.11Z"/>
    <path class="st0" d="M8420.49,1731.94v-465.91h379.08c15.98,0,30.56,4,43.74,11.99,13.17,8,23.75,18.58,31.75,31.75,7.99,13.18,11.99,27.76,11.99,43.74v128.3c0,15.55-4,30.03-11.99,43.42-8,13.4-18.58,23.98-31.75,31.75-13.18,7.78-27.76,11.66-43.74,11.66l-301.32.65v162.65h-77.76ZM8509.91,1490.23h287.06c3.02,0,5.72-1.07,8.1-3.24,2.37-2.16,3.56-4.96,3.56-8.42v-123.12c0-3.02-1.2-5.72-3.56-8.1-2.38-2.37-5.08-3.56-8.1-3.56h-287.06c-3.03,0-5.73,1.19-8.1,3.56-2.38,2.38-3.56,5.08-3.56,8.1v123.12c0,3.46,1.18,6.27,3.56,8.42,2.37,2.17,5.07,3.24,8.1,3.24ZM8797.62,1731.94l-143.21-171.07h101.74l128.95,152.93v18.14h-87.48Z"/>
    <path class="st0" d="M9062.01,1731.94c-15.99,0-30.68-3.89-44.06-11.66-13.4-7.78-23.98-18.36-31.75-31.75-7.78-13.38-11.66-28.08-11.66-44.06v-291.6c0-15.98,3.89-30.67,11.66-44.06,7.78-13.39,18.36-23.98,31.75-31.75,13.38-7.78,28.08-11.66,44.06-11.66h377.78v78.41h-364.18c-6.92,0-12.54,2.06-16.85,6.16-4.32,4.11-6.48,9.62-6.48,16.52v264.38c0,6.92,2.16,12.42,6.48,16.52,4.31,4.11,9.93,6.16,16.85,6.16h364.18v78.41h-377.78Z"/>
    <path class="st0" d="M9526.62,1731.94v-465.91h379.08c15.98,0,30.56,4,43.74,11.99,13.17,8,23.75,18.58,31.75,31.75,7.99,13.18,11.99,27.76,11.99,43.74v128.3c0,15.55-4,30.03-11.99,43.42-8,13.4-18.58,23.98-31.75,31.75-13.18,7.78-27.76,11.66-43.74,11.66l-301.32.65v162.65h-77.76ZM9616.04,1490.23h287.06c3.02,0,5.72-1.07,8.1-3.24,2.37-2.16,3.56-4.96,3.56-8.42v-123.12c0-3.02-1.2-5.72-3.56-8.1-2.38-2.37-5.08-3.56-8.1-3.56h-287.06c-3.03,0-5.73,1.19-8.1,3.56-2.38,2.38-3.56,5.08-3.56,8.1v123.12c0,3.46,1.18,6.27,3.56,8.42,2.37,2.17,5.07,3.24,8.1,3.24ZM9903.75,1731.94l-143.21-171.07h101.74l128.95,152.93v18.14h-87.48Z"/>
    <path class="st0" d="M10081.95,1352.86c0-15.98,3.89-30.67,11.66-44.06,7.78-13.39,18.36-23.98,31.75-31.75,13.38-7.78,28.08-11.66,44.06-11.66h291.6c15.98,0,30.56,3.89,43.74,11.66,13.17,7.78,23.75,18.37,31.75,31.75,7.99,13.4,11.99,28.09,11.99,44.06v379.08h-78.41v-160.06h-310.39v160.06h-77.76v-379.08ZM10470.1,1494.12v-138.67c0-3.02-1.2-5.72-3.56-8.1-2.38-2.37-5.08-3.56-8.1-3.56h-287.06c-3.03,0-5.73,1.19-8.1,3.56-2.38,2.38-3.56,5.08-3.56,8.1v138.67h310.39Z"/>
    <path class="st0" d="M10643.12,1731.94v-466.56h428.33v78.41h-349.92v115.99h281.88v77.76h-281.88v194.4h-78.41Z"/>
    <path class="st0" d="M11307.31,1731.94v-388.15h-194.4v-78.41h466.56v78.41h-194.4v388.15h-77.76Z"/>
  </g>
</svg>