<?xml version="1.0" encoding="UTF-8"?><svg id="Layer_1" xmlns="http://www.w3.org/2000/svg" viewBox="0 0 2734.7747 2597.7679"><path d="M1791.413,1284.8059c11.0596-4.5419,21.12-6.5571,31.9084-6.498l37.4751-6.1755,13.7702-2.5956,33.385-5.1898,41.5431-5.8503,42.6945-6.0658,51.3703-6.1298,37.9123-1.8039c11.7942-.5612,21.8996-5.5684,33.8727-5.0449,20.1601.8815,38.8447-1.5004,58.8549-3.4207l19.5235-1.8736,72.0236-.9328,22.4756-3.2419,145.8876-.5447c2.0592-16.0044-1.8168-30.3563-4.2398-45.1628l-5.7585-35.1895c-1.5457-9.4458-1.552-17.3842-6.1708-26.365l-1.8027-21.2061c-3.3304-8.1541-4.0632-14.6034-6.106-22.6599l-5.8439-23.0481-5.9565-23.4658-5.0841-18.0626-5.6047-17.8467-5.4799-16.2941-5.9014-17.3946-5.6099-16.4392-5.3654-13.8138-7.4257-18.121c-25.0458-61.1194-54.6868-117.8887-90.1152-173.5536l-39.7724-58.6394-17.6148-23.3912-23.3206-29.4936-26.6948-30.1685-18.1796-18.9336-17.0756-18.2017-25.4284-23.9212c-57.872-54.4418-120.2924-101.2139-189.3503-141.0163l-66.0719-35.9167-71.7754-32.0595-34.4381-12.7685-14.6547-5.2044-16.273-5.5607-17.5707-5.7057-18.0902-5.6984-23.5748-6.0111-21.8356-5.4763-27.3024-5.9454-33.641-5.4983-11.4981-2.8674-39.5338-5.1578-45.1263-4.2933-15.5092-2.4449-134.7511.635c-20.513.0967-40.111,7.4439-60.8647,4.8278-13.4533,4.6522-26.9251,5.9014-40.7739,6.789l-17.4829,3.925-20.6923,3.9379-29.4057,5.9879-22.0174,5.4328-24.8951,6.2882-19.9971,5.4713-19.4172,5.9724-46.0809,15.609c-78.92,26.7327-151.4932,64.8767-220.3805,112.04l-25.8619,17.7062-13.3227,9.9198-36.5339,30.1371-33.1816,27.4774c-24.3342,20.151-45.6685,42.9737-66.2255,66.7763l-33.7071,39.029-23.3242,29.3512-17.2249,23.6983-25.2292,35.8873c-26.0265,37.0215-43.9926,77.4604-64.4777,117.6289l-11.2636,22.0863-20.6238,51.5465-11.7902,31.8663-6.038,17.4803-5.5841,18.1744-5.8516,19.6026-5.9691,21.4765-5.639,22.0678-5.2902,21.8126-6.2277,29.082-3.677,23.204-3.8055,24.1703-5.9051,49.7283c-1.906,16.0504-1.6184,33.02-1.9654,49.5116l-1.6672,79.2532,1.5899,36.2865c.74,16.8893-.3455,34.4205,2.0956,51.0537l5.8397,39.7893,5.4734,39.1318,2.5391,11.7263,5.5157,31.5614,5.3637,23.7467,6.0912,25.4789,5.2851,20.0954,6.2011,23.3471,5.6132,17.9753,18.8878,57.6262,5.1776,8.9556c1.2564,2.1732-3.0545,7.3941-5.7426,9.0183l-31.9488,19.3045-56.9577,34.9345-32.8877,18.3444-52.7485,33.3214c-6.7354-9.267-12.0238-18.2343-15.9802-28.3096l-21.1357-53.8235-5.6492-15.8583-6.1285-17.0435-5.6802-15.9141-5.846-19.8243-5.6635-21.5954-5.6571-21.5919-4.1141-16.9216-3.6979-17.3723-5.9216-28.9515-5.4821-29.7977-6.4473-37.3674-1.5945-26.0814c-4.1563-15.944-5.4377-29.3845-5.3619-45.9452l-5.2213-48.7658.047-132.8618c.0041-11.7344,4.7801-23.7568,5.1623-35.4582l1.0147-31.0681c2.8085-17.2578,5.2594-33.4805,5.5936-51.0083,4.2619-11.2816,6.0357-22.8219,5.6954-35.0533,4.4778-9.3755,6.0759-19.3169,5.875-29.6927l6.508-24.9466,6.0622-25.4511,4.4054-16.8873,5.9415-21.6617,5.9345-19.2517,5.6808-16.0654,5.2584-14.3659,6.8211-18.64c28.8332-78.7925,64.0823-153.7929,109.6774-224.0586l19.5163-30.0761,10.3197-15.2716,18.1314-26.8046,51.1995-66.173c15.2974-19.7712,30.8731-37.5632,48.4362-55.0864l43.2904-43.1921,13.8418-13.495,31.1821-27.6288,39.315-33.1151c15.0237-12.6545,29.5896-23.2527,46.1901-34.5099,73.8496-50.0791,150.3594-94.7392,232.6202-128.5486l58.6228-22.1726,35.0787-12.3723,20.4383-6.9354,18.1201-5.566,19.5947-5.717,22.003-5.698,23.379-5.864,15.1025-3.7645,17.3247-3.6473,29.5617-5.5876,32.7306-6.1873c10.1406-1.917,18.4768-2.341,28.6159-5.8456,6.0155-2.0792,16.7957-.4914,23.5264-1.9283,20.287-4.331,38.8283-4.9817,59.4759-5.7587l39.0603-5.176,174.2972-.0428c9.1959-.0023,18.8481,4.3179,27.3939,5.0972l33.9695,3.0977,14.0485,2.487,29.2715,2.2615,29.8109,6.0651,31.5776,6.0332,23.7492,5.0993,21.6636,5.2415,22.2471,5.5537,21.4782,5.8857,18.1044,5.4407,21.5238,6.2506,17.2831,5.6325,16.319,5.574,17.1321,6.0139,12.6522,4.6907,49.2213,21.1246,9.4325,3.9646,61.9555,30.1429c44.2886,21.5475,85.7133,45.2519,124.9611,74.8894l63.6607,48.0726,22.884,18.1263,36.016,30.6831,21.5713,19.5175c31.5641,28.5589,60.864,57.5392,88.4017,89.9446l37.7184,44.3857,25.8089,33.0964,17.3595,23.7084c67.2325,91.8212,117.7246,192.8303,156.9554,299.1261l5.7201,16.3181,5.8781,17.6047,5.2376,16.0623,17.5011,70.7766,5.1648,24.1739,5.9022,28.0244,5.0424,28.0033,4.4879,18.0256,1.5491,28.2362c2.9258,12.0178,5.3789,21.7036,4.9935,34.0734-.2224,7.1388,1.8861,14.0697,2.3321,21.1577l4.0825,64.8757,1.6692,21.6846c.5969,7.7547-6.4935,12.4143-13.7028,11.9012-31.5381-2.2446-61.005,2.0206-92.0118,4.8106l-77.6103,1.3642-30.2502,4.3413c-24.4294,1.0917-46.8044,1.8377-70.8337,6.0181l-42.1654,1.5958c-14.3733.544-27.0906,5.8811-41.6994,4.9752-11.4524-.7102-21.1461,1.8927-32.4085,4.8595l-27.9887,1.7337-45.1526,6.4938-41.3853,5.7104-37.0019,5.4595-13.9832,2.3747-33.3173,5.4176-35.5818,5.9829-27.6399,6.1752-19.6648,1.869c-5.9133.562-11.2204,4.8324-16.4907,4.6795-8.8989-.2583-15.1404,2.6768-22.8582,4.2973l-29.2296,6.1374-27.4927,5.928-20.7574,4.719-23.9085,5.6149-23.5215,5.7913-20.0855,5.1351-24.8272,6.2488-22.0686,5.6255-21.5553,5.8823-19.8604,5.6316-21.1541,6.1724-18.5053,5.4484-16.4935,4.7985-21.4205,6.0005-19.6114,5.704-18.0689,5.4814-18.1262,5.6226-19.0143,6.3006-16.2677,5.4277-17.5843,5.9059-16.1273,5.4172-18.0142,5.6425-15.9054,5.3715-17.5485,6.0076-14.3972,5.0775-17.2978,6.1199-15.9893,5.6578-15.9796,5.6892-15.7003,5.6411-18.9197,6.7468-82.6645,31.3813-85.059,34.1471-31.2149,13.9861-74.365,33.4631-96.1174,45.0379c-78.7238,39.4196-155.7044,79.1189-230.6795,125.1401l-64.6858,39.7054-141.6504,90.8445-52.3978,33.9817-60.4599,39.1992-67.3473,44.5109-143.6206,96.9497-41.649,27.2659c-13.4234,9.4459-29.1132,15.2849-44.9824,19.3255-18.3298-4.1752-32.0634-13.18-43.7663-26.9747-5.206-3.8797-10.1984-8.1362-14.0722-13.3086l-16.0018-21.366c-12.6692-16.9163-23.6115-34.9134-30.6539-55.3966l-6.448-18.7545c-4.5408-13.2073,3.1696-40.2466,11.9752-51.017,14.3318-17.5299,30.9911-31.6735,48.5078-45.606l33.8076-26.8899,22.2286-16.999,18.7824-14.3252,21.4772-15.8854,30.5141-22.19,51.593-37.1301,24.6906-17.7196,33.9008-23.1281,81.3199-53.2547,57.198-33.2382,18.4752-10.3832,56.9904-30.3128c139.5761-74.2396,283.9759-134.9852,431.043-190.5373l17.108-6.4623,14.3208-5.3522,18.3637-6.6993,52.5934-18.6596,27.4495-9.446,14.6927-4.9147,17.4954-5.8395,16.2507-5.4242,18.927-6.1985,19.4027-6.0383,54.2482-16.8674,16.0424-4.8327,20.0964-5.8086,17.8204-5.5044,19.2866-5.9325,19.9346-5.6844,21.2136-5.982,21.508-5.9326,18.668-5.1493,20.085-5.3908,21.5033-5.5467,22.1125-5.5474,23.47-5.8872,23.4617-5.9768,13.7519-2.7109,20.025-5.7578,25.422-5.9884,25.3619-5.8705,16.4625-4.0472,15.9468-3.3266,27.5027-5.7378,27.5392-5.6938,29.2086-5.8892c8.7695-1.7681,15.4575-2.8863,24.1459-6.3174l19.7666-1.7246c10.4757-3.774,19.1653-4.5198,29.9274-6.232,11.5445-1.8366,22.8855-6.4562,36.4502-4.5029Z" fill="#fff"/><path d="M404.9174,2107.0315c-2.7231-2.7133-3.6207-8.4902-1.6642-9.8985l26.2526-18.8954,29.1153-20.2381,40.6112-26.107,104.2508-63.0914,24.9088,25.3577,15.2331,19.7609,39.3829,40.8594,11.4518,12.1678,19.8575,19.3385,24.1758,22.7149,41.3557,34.9395,26.9151,20.6669c86.1584,66.157,182.6901,116.2563,286.5465,145.9324l20.1525,5.7584,21.8357,5.8649,21.9658,5.4827,25.4611,5.9564,29.2468,5.8584,35.692,5.6782c12.1598,1.9345,24.4562,5.5228,37.3705,4.6313,15.5613-1.0742,29.8178,2.4933,45.1213,3.3517l37.0271,2.077,54.1001-.401,39.4026-2.127,34.0466-3.3966,26.7925-2.3492c5.7012-.4999,12.0649-3.2427,17.9266-2.9778,10.957.4951,20.0057-1.7179,30.1082-5.3373l16.6083-1.0315c9.6607-4.6239,19.5336-4.2448,29.3604-6.7361l23.3181-5.9118,21.7719-5.6895,21.5365-5.8124,19.4593-5.6329,14.9112-4.684,17.5209-6.0542,16.1729-5.5877,16.9692-6.2386c59.8899-22.0181,115.1267-51.6696,169.9383-84.0706l33.903-21.5041c45.7093-28.9927,86.6274-63.279,127.6112-99.3378l67.6785-67.2808,19.8768-23.2874,21.8081-25.0538,18.1432-23.2586,20.0297-26.6689,62.3559-98.2472,19.0386-34.3549c24.9982-45.109,43.5212-91.7831,58.5468-140.8361l12.8201-41.8529,4.8044-18.421,6.1132-24.9895,5.8191-25.3954c2.0922-9.1307,1.8981-17.2341,6.3074-25.957l2.1331-19.5364,5.9935-36.0195,5.5512-47.1828,3.6895-27.1208,1.2294-22.1497c.1395-2.5141.2425-7.0689,1.5735-8.4843s5.2936-1.955,7.5366-2.0099l14.3866-.3521,52.2589-1.1888,26.4563-2.5939,75.3257-1.3752,16.0016-.6404-.4389,63.9366-2.3022,20.9063c-.8307,7.5435-3.5539,14.6071-3.1233,22.0222.813,13.9994-2.7202,26.2457-4.685,39.5106l-5.7861,39.0628-5.8672,30.2573-2.5238,19.3576-5.9083,24.194-5.9555,25.4802-4.8193,17.8113-16.243,52.5744-16.3373,46.2305c-45.4547,118.562-109.134,229.3608-189.4242,328.477l-27.3823,32.2677-26.3406,28.2497-20.0425,21.4623-24.8821,25.1309-39.1146,37.8826-19.6138,17.3807-35.4261,29.2641-17.6848,13.7224c-87.4753,67.8757-190.7046,127.4968-293.0326,166.9623l-48.0995,18.5508-15.5032,5.0545-20.1059,5.8171-18.2425,5.5312-13.2249,3.1999-19.5681,5.907-23.8548,5.6923-23.4321,5.7956-18.4671,4.1675-17.8465,3.3125-32.7091,6.747c-11.113-.0995-21.7742,1.4277-31.9251,5.7609-16.774-.5458-32.6952,2.8933-49.4499,4.7231l-59.7784,6.5285-54.0056,1.6814-62.3658.0217-69.3407-1.7984-66.3585-6.5764-43.7216-5.4113-40.5701-5.8918-27.3717-5.5372-8.7524-2.0854-29.1096-5.9814-23.7699-5.5135-23.562-6.0334-18.0138-5.1107-21.5366-6.2333-19.58-5.8074-19.5953-5.9051-15.0323-4.8407-20.5147-7.5563-86.3215-35.1113-105.4952-52.5956-24.5887-15.0574-32.496-20.0505-16.9866-10.5233-55.1798-38.6404-21.1715-16.3289-27.5392-21.335-23.8677-19.1596-13.8224-11.5454-99.391-99.034Z" fill="#fff"/><path d="M2603.4764,1702.0828l4.159-13.2927,5.9499-17.6153,3.3709-12.7555,5.1262-16.6519,6.2315-23.472,5.1626-22.3664,6.1904-28.9619,5.6298-29.8495,3.8011-24.6987,3.5993-20.8028,6.41-50.6665,2.0137-35.0209,3.8607-37.4643.439-111.3386-2.1581-17.6398-4.3432-56.7997-4.9489-35.5507c-.6622-4.7571-1.8314-11.453-2.5945-16.2118l-6.5222-40.6756-5.4042-27.1634-5.632-30.1907-5.6044-21.7483-6.0121-23.43-5.6059-21.8469-6.6104-22.6226-25.5904-71.227c-44.1931-123.0045-111.6204-236.0407-194.7476-337.26l-22.9446-26.5946-33.8894-38.6566-55.7523-55.5249-61.8595-55.8116-20.4362-16.5405-36.7566-28.2982c-82.5765-60.5862-170.1702-112.1204-264.1111-152.3131l-58.3858-22.3844-16.7059-6.1583-16.2589-5.5972-16.1466-5.3406-18.2787-5.5336-17.5875-5.317-21.5306-5.9155-20.0741-6.0662-17.5044-2.1935c-8.291-3.3203-15.3989-4.4402-23.9764-6.2159l-27.458-5.6843-29.5902-5.8168-43.4599-5.6146-23.2269-3.7031-29.6591-.9974-23.7875-3.1494-59.1769-1.9758-72.7555.0033-53.4467,1.9542-39.6219,3.5344-26.6836,2.3589c-8.3059.7343-15.6117,3.3081-23.988,2.9958-9.2731-.3458-15.9149,1.6229-24.805,4.7674l-19.2665,2.2227-29.4873,6.2794-27.8324,5.7213-27.5719,5.6681-24.7144,6.0416-20.2057,5.4652-19.5637,5.5454-18.3855,5.2812-18.4066,5.5018-17.6714,5.6324-17.5329,5.9491-17.1222,6.1882-14.6778,5.1899-15.5978,5.4939-46.2055,18.1993-27.2793,13.3988-65.421,30.9036-24.6696,14.237c-35.8135,20.6682-70.6584,40.4303-103.9321,64.7478l-56.6537,41.4043-11.1115,8.4801-40.454,34.1454-36.0601,34.2126c-11.8574,11.2499-23.2854,22.2298-34.4791,34.1492l-35.0101,37.2801-40.4258,47.9184-21.3774,27.8053c-50.4388,65.6049-94.5369,134.4437-128.542,209.7057l-29.3596,64.9802-5.1051,13.9576-5.4806,14.3185-6.0507,15.4775-5.7162,14.0302-6.0455,16.63-5.8274,18.2671-4.7704,14.9504-5.7551,19.3347-5.2734,20.1986-6.2307,24.8943-6.0779,22.1986-1.9706,19.2657c-3.7227,9.1546-5.4992,16.8961-5.0361,26.7287-5.1161,12.3587-6.6748,25.2767-5.6828,38.9737-4.7866,11.8926-6.9251,24.2453-5.563,37.2984l-2.8469,20.8733c-3.0384,22.2775-2.1019,44.5294-3.9693,67.1566l-2.0955,25.3915-.072,18.2969,1.6583,69.1039,1.9541,50.6786,4.1193,32.601,2.2583,31.2248,3.1724,21.9185,5.9139,38.8935,5.422,26.6955,3.3919,18.7678,5.3999,22.4178,5.6735,23.8967,5.8606,23.0445,5.7612,21.6102,5.2435,18.102,5.1522,16.7972,6.2499,18.8457,5.209,14.8432,6.4012,16.5086,5.5323,14.2445,5.2839,16.2695,17.757,40.6251c1.6882,3.8622,7.6771,12.5341,4.6609,15.3807l-17.5953,16.6063-15.5131,11.8418-6.7763,4.2929c-1.5871,1.0054-6.2561-2.0298-7.0947-3.7806l-23.4134-48.8758-25.3102-60.961-10.171-27.1829-4.7781-13.3349-5.9785-17.5559-5.7329-17.5873-5.3783-18.0739-6.6043-24.911-5.3228-20.0772-5.8728-27.7339-5.5249-29.3935-2.103-10.4435-5.657-33.0032-5.5619-33.6055-6.3848-41.1777-1.3167-38.6205-5.2083-39.1872.0325-146.5577,5.2013-35.4775c1.7616-12.0154-.4598-25.085,1.3915-36.647l6.0346-37.6884,4.8385-33.5614,4.8522-33.3076,4.1111-21.43,5.9347-25.4961,5.2552-22.0001,5.6032-21.967,5.8564-19.5327,5.7194-17.5802,5.7702-17.633,5.7865-18.1249,5.6592-15.7753,6.4351-17.4293c13.0361-35.3081,27.2157-69.3052,44.3114-102.4499l38.6366-74.9079,9.52-14.3852c30.8927-54.3687,66.7497-103.5982,104.9794-153.0382,28.2476-36.5307,58.8305-68.2648,90.6211-101.1318,10.2333-10.5798,19.62-20.8688,30.4633-30.6384l41.1154-37.0443,27.4561-23.3386,40.1611-32.7417,17.5178-13.0623,35.0932-24.2702,61.0063-39.0596c49.1575-31.4733,101.0224-56.8996,154.9292-79.8362l45.3503-19.2959,75.0595-26.944,16.4114-5.3701,17.7323-5.6881,21.0475-6.4116,18.0144-5.3728,21.9453-5.7318,23.5564-5.8171,23.8173-5.6686,18.2055-4.143,19.6383-3.75,28.9472-5.5785,37.7155-5.701c13.6855-2.0687,27.3543-2.9216,41.0332-6.8743,20.0622.07,38.8107-1.2485,58.8295-6.1837l203.0369-.0222,31.5932,5.3976c9.3143,1.5913,21.8012-.9376,30.313,1.3662,11.5973,3.139,20.4042,3.7342,32.4629,5.2038l22.3596,2.7251,25.8734,3.9449,21.88,4.4266,18.1572,3.1599,25.5051,5.8882,23.8804,5.6087,25.0754,6.0758,19.9923,5.5089,18.1651,5.5671,19.3739,6.2292,17.2363,5.6461,18.3332,5.8703c81.5059,29.7344,159.8801,65.5818,234.9524,109.484l60.3543,38.0646,59.128,40.5398,29.2419,21.676,70.8645,58.5451,48.1583,45.8126,53.3333,54.1375,22.1345,25.037,30.1067,36.4079,14.5989,18.7601,70.8822,99.3894c25.9753,36.422,47.2592,73.9189,65.2738,115.165l48.063,110.0449,6.7715,18.2764,5.1418,14.6294,6.4482,19.046,5.362,15.4897,5.8331,20.0628,5.3382,18.3513,6.1864,21.2568,4.9302,20.2548,6.0169,27.5472,5.2382,23.3834,6.3507,29.6297,2.0629,17.7375c.953,8.1937,4.9793,14.4011,4.7013,22.6923-.3184,9.4966,4.2991,17.0452,4.8405,26.4967l1.9244,33.5945c3.3549,15.561,5.6257,29.7995,4.9528,45.6913-.6314,14.911,2.8075,28.5645,3.314,43.3568l1.4568,42.5514-.0287,23.9678-1.1252,36.9896-3.8604,64.7726-4.8263,32.9306-5.3522,41.5413-5.5624,31.6027-6.0544,33.2017-5.9499,24.154-2.4119,17.3737-5.8774,22.1903-5.6969,23.5245-4.4699,16.7788-6.5034,21.0631-5.3266,16.3378-5.4776,16.2891-6.5321,18.4572c-34.1593,96.5205-83.3538,185.196-140.349,270.3847l-12.8121,19.1498-8.7992,12.4001-28.6242,37.728-20.0371,25.0719-28.1405,32.6627-9.7438,11.8758-101.7597,101.4231-37.0161,31.7633-13.9345,11.7313-63.4743,48.3965c-92.3608,65.1147-191.5957,118.0872-296.8048,158.6651l-13.0211,4.5693-15.5754,5.8947-15.531,5.5959-18.3195,5.8242-19.0065,6.0207-19.5484,5.8718-19.7774,5.9417-17.0671,4.2423-25.5398,5.8313-25.3218,5.8381-24.001,5.5789c-10.3957,2.4164-20.7425,2.1956-30.8219,6.8839l-18.5203,1.3373c-13.3894,4.0597-25.9446,4.4918-39.6796,6.152-12.4621,1.5064-24.0765,5.8506-37.3352,4.855-9.707-.7289-18.9326,1.4951-28.5887,2.544l-25.9918,2.8233-70.6486,3.5839-91.5428.2223-24.4477-2.8183-60.2843-1.068-17.0915-2.267c-8.2077-1.0887-15.774-3.7146-23.9688-3.1129-14.63,1.0741-27.5562-2.9326-41.3711-4.7585-13.179-1.7419-24.5289-2.2812-37.706-6.2849l-17.958-1.5521c-8.856-4.5052-18.5195-4.1025-27.8363-6.1186l-29.2885-6.3379-23.5503-5.5164-23.5947-5.6201-18.7658-4.675-22.0299-5.8422-19.5029-5.7863-19.5067-6.0007-17.7552-5.6929-15.4038-5.7705-16.2394-5.65-16.7787-5.9778-43.5187-17.1998-54.4702-24.1671c-64.2165-28.4913-124.7934-62.0113-181.7367-103.6442l-38.7523-26.2334-23.5868-17.4683-15.67-11.7038-20.4919-16.5063-39.8806-34.7283-23.002-20.2684-48.8504-48.807-39.0071-42.8933c-4.2988-4.7271,1.2669-10.064,5.0326-12.5392l25.8893-17.0169c1.7671-1.1615,7.6153-.3703,8.9828,1.3871l14.3529,18.4451,48.1416,48.0509,18.565,16.5645,39.4217,35.0197,24.4587,20.7224,27.7252,22.9675,28.6201,20.5736,47.3296,32.8946,63.8109,39.8406,16.2498,9.6021c65.1159,35.5929,131.9258,65.234,201.5253,91.5737l19.0902,6.4686,16.047,5.4543,19.2273,5.8859,21.4447,6.0236,20.0014,5.6629,19.9148,5.5686,21.9813,5.356,24.0165,5.389,25.5106,5.631,27.3503,5.7707,31.8815,6.1916,21.6942,1.82c17.2921,3.9534,31.8818,5.4905,49.9167,5.5446l19.1576,5.1292,74.5543,3.9498,23.6715,1.6649,81.9452.0576,21.5612-1.8752c16.1097-1.4011,30.9919-3.9819,47.1065-3.4658,15.7542.5046,29.9873-2.0967,45.3461-5.2183l28.0365-1.8016,30.2966-5.9999,34.8432-6.0619,31.4123-5.8008,23.7238-5.4128,25.6025-5.8136,20.1288-4.8747,20.1962-5.54,21.1818-6.2078,18.5491-5.4351,16.9856-5.7536,17.7967-5.9598,17.6421-5.5037,61.7447-24.1942,36.6161-16.7072c58.2034-26.557,113.0839-57.6631,166.4998-93.5776l17.6824-11.8888,57.5007-42.018,25.9765-21.1508,28.2424-24.4862,30.6538-26.5768,56.548-56.5931,32.4709-36.4826,23.6992-27.2212,33.1153-41.2557,10.7635-14.621,13.7576-19.5512,16.4327-22.7496,36.1851-57.3539,30.0813-54.7726c31.413-57.1974,55.5078-117.358,77.2471-178.9438Z" fill="#fff"/></svg>